<svg width="29" height="27" viewBox="0 0 29 27" fill="none" xmlns="http://www.w3.org/2000/svg">
<path d="M10.9091 22.95H12.2727V25.65H10.9091V27H8.18182V25.65H6.81818V22.95H8.18182V21.6H10.9091V22.95ZM25.9091 22.95H27.2727V25.65H25.9091V27H23.1818V25.65H21.8182V22.95H23.1818V21.6H25.9091V22.95ZM4.09091 1.35V0H0V2.7H4.09091V6.75H5.45455V13.5H6.81818V18.9H8.18182V20.25H25.9091V17.55H9.54545V14.85H25.9091V13.5H27.2727V9.45H28.6364V5.4H30V1.35H4.09091ZM25.9091 5.4V9.45H24.5455V12.15H8.18182V6.75H6.81818V4.05H27.2727V5.4H25.9091Z" fill="#FC4B38"/>
</svg>
