<svg width="29" height="28" viewBox="0 0 29 28" fill="none" xmlns="http://www.w3.org/2000/svg">
<path d="M11.1591 0.363637H5.70455V3.09091H2.97727V5.81818H0.25V14H2.97727V16.7273H5.70455V19.4545H8.43182V22.1818H11.1591V24.9091H13.8864V27.6364H16.6136V24.9091H19.3409V22.1818H22.0682V19.4545H24.7955V16.7273H27.5227V14H30.25V5.81818H27.5227V3.09091H24.7955V0.363637H19.3409V3.09091H16.6136V5.81818H13.8864V3.09091H11.1591V0.363637ZM11.1591 3.09091V5.81818H13.8864V8.54546H16.6136V5.81818H19.3409V3.09091H24.7955V5.81818H27.5227V14H24.7955V16.7273H22.0682V19.4545H19.3409V22.1818H16.6136V24.9091H13.8864V22.1818H11.1591V19.4545H8.43182V16.7273H5.70455V14H2.97727V5.81818H5.70455V3.09091H11.1591Z" fill="#FC4B38"/>
</svg>
