<svg width="26" height="28" viewBox="0 0 26 28" fill="none" xmlns="http://www.w3.org/2000/svg">
<path d="M19.25 5.25V2.75H18V1.5H15.5V0.25H10.5V1.5H8V2.75H6.75V5.25H5.5V10.25H6.75V12.75H8V14H10.5V15.25H15.5V14H18V12.75H19.25V10.25H20.5V5.25H19.25ZM16.75 10.25V11.5H15.5V12.75H10.5V11.5H9.25V10.25H8V5.25H9.25V4H10.5V2.75H15.5V4H16.75V5.25H18V10.25H16.75ZM24.25 22.75V21.5H23V20.25H21.75V19H19.25V17.75H6.75V19H4.25V20.25H3V21.5H1.75V22.75H0.5V26.5H1.75V27.75H24.25V26.5H25.5V22.75H24.25ZM4.25 22.75V21.5H6.75V20.25H19.25V21.5H21.75V22.75H23V25.25H3V22.75H4.25Z" fill="#FC4B38"/>
</svg>
