<svg width="28" height="28" viewBox="0 0 28 28" fill="none" xmlns="http://www.w3.org/2000/svg">
<path d="M26.0908 27.2329C25.9762 27.1741 24.3631 25.6083 22.5062 23.7533L19.1301 20.3805L18.5495 20.7964C14.1157 23.9723 8.06915 23.4715 4.23008 19.6103C2.77292 18.1448 1.8177 16.456 1.31578 14.4579C0.968118 13.0739 0.889164 11.7515 1.07171 10.3698C1.6756 5.7988 4.94448 2.12312 9.40297 1.00177C13.1857 0.0503799 17.1665 1.15504 19.9362 3.92471C21.8027 5.79121 22.9093 8.17177 23.1502 10.8389C23.3948 13.5473 22.5583 16.3989 20.8918 18.5376L20.6844 18.8038L24.1295 22.2557C27.8366 25.9702 27.7455 25.8608 27.6274 26.4513C27.4935 27.1208 26.6796 27.5349 26.0908 27.2329ZM13.9637 20.4679C15.7128 20.0692 17.064 19.3195 18.3486 18.0348C19.6567 16.7267 20.4288 15.311 20.8156 13.511C20.9949 12.6767 20.9958 10.8554 20.8175 10.0362C20.4342 8.27688 19.6767 6.86452 18.4235 5.57224C17.1719 4.28179 15.636 3.43732 13.8248 3.04394C12.9975 2.86425 11.1773 2.86425 10.35 3.04394C8.54158 3.43674 7.13341 4.20508 5.82619 5.51231C4.51896 6.81954 3.75061 8.22771 3.35782 10.0362C3.17812 10.8635 3.17812 12.6837 3.35782 13.511C3.75028 15.3179 4.517 16.7238 5.82619 18.0372C7.28757 19.5032 9.04191 20.3619 11.1145 20.6258C11.6626 20.6955 13.3836 20.6002 13.9637 20.4679Z" fill="#7C7C7C"/>
</svg>
