<svg width="30" height="30" viewBox="0 0 30 30" fill="none" xmlns="http://www.w3.org/2000/svg">
<g clip-path="url(#clip0_1057_44)">
<path d="M28.575 21.4219H30V27.1406H28.575V21.4219ZM27.1406 27.1406H28.575V28.5656H27.1406V27.1406ZM27.1406 19.9969H28.575V21.4219H27.1406V19.9969ZM14.2875 28.5656H27.1406V30H14.2875V28.5656ZM24.2906 24.2813H25.7156V25.7156H24.2906V24.2813ZM24.2906 21.4219H25.7156V22.8563H24.2906V21.4219ZM18.5719 25.7156H24.2906V27.1406H18.5719V25.7156ZM17.1469 24.2813H18.5719V25.7156H17.1469V24.2813Z" fill="#FC4B38"/>
<path d="M17.1469 14.2875V15.7125H18.5719V24.2812H20.0063V19.9969H27.1406V18.5719H20.0063V12.8531H18.5719V14.2875H17.1469ZM17.1469 11.4281H18.5719V12.8531H17.1469V11.4281ZM2.85938 12.8531H17.1469V14.2875H2.85938V12.8531ZM17.1469 27.1406V25.7156H2.85938V27.1406H12.8625V28.5656H14.2875V27.1406H17.1469ZM7.14375 0H12.8625V1.425H7.14375V0ZM17.1469 17.1375H15.7125V15.7125H4.28438V17.1375H2.85938V22.8562H4.28438V24.2812H15.7125V22.8562H17.1469V17.1375ZM5.71875 17.1375H7.14375V18.5719H5.71875V17.1375ZM14.2875 21.4219H12.8625V22.8562H7.14375V21.4219H5.71875V19.9969H7.14375V21.4219H12.8625V19.9969H14.2875V21.4219ZM14.2875 18.5719H12.8625V17.1375H14.2875V18.5719ZM17.1469 11.4281V9.99375H14.2875V1.425H12.8625V9.99375H7.14375V1.425H5.71875V9.99375H2.85938V11.4281H17.1469ZM1.43438 24.2812H2.85938V25.7156H1.43438V24.2812ZM1.43438 11.4281H2.85938V12.8531H1.43438V11.4281ZM1.43438 15.7125H2.85938V14.2875H1.43438V12.8531H0V24.2812H1.43438V15.7125Z" fill="#FC4B38"/>
</g>
<defs>
<clipPath id="clip0_1057_44">
<rect width="30" height="30" fill="white"/>
</clipPath>
</defs>
</svg>
